{"title":"Before the Devil Knows Youre Dead-720p MP4 AAC x264 BRRip 2006-C","uid":7558164,"size":2559813662,"categoryP":"video","categoryS":"hd___movies","magnet":"?xt=urn:btih:38f91339ea66c963fd4db5ae1f1686a14b2d0d72&amp;dn=Before+the+Devil+Knows+Youre+Dead-720p+MP4+AAC+x264+BRRip+2006-C&amp;tr=udp%3A%2F%2Ftracker.openbittorrent.com%3A80&amp;tr=udp%3A%2F%2Fopen.demonii.com%3A1337&amp;tr=udp%3A%2F%2Ftracker.coppersurfer.tk%3A6969&amp;tr=udp%3A%2F%2Fexodus.desync.com%3A6969","seeders":1,"leechers":0,"uploader":"Caveman44","files":-1,"time":1345673565,"description":" &lt;a href=&quot;http://www.imdb.com/title/tt0292963/&quot; rel=&quot;nofollow&quot; target=&quot;_NEW&quot;&gt;http://www.imdb.com/title/tt0292963/&lt;/a&gt;\n\nSource: Before.The.Devil.Knows.Youre.Dead.LIMITED.720p.DTS.BluRay.x264-REFiNED\n\nSubs: Arabic, Brazilian, Bulgarian, Danish, Dutch, English, Finnish, French, Greek, Hebrew, Norwegian, Polish, Portuguese, Romanian, Slovenian, Spanish, Swedish and Turkish.\n\nSample and Screens included.\n\nGeneral\nComplete name                    : Before the Devil Knows Youre Dead-720p MP4 AAC x264 BRRip 2006-CC.mp4\nFormat                           : MPEG-4\nFormat profile                   : Base Media\nCodec ID                         : isom\nFile size                        : 2.36 GiB\nDuration                         : 1h 56mn\nOverall bit rate                 : 2 891 Kbps\nEncoded date                     : UTC 2012-08-14 13:41:56\n\nVideo\nID                               : 1\nFormat                           : AVC\nFormat/Info                      : Advanced Video Codec\nFormat profile                   : &lt;a class=&quot;__cf_email__&quot; href=&quot;/cdn-cgi/l/email-protection&quot; data-cfemail=&quot;e7af8e808fa7abd4c9d6&quot;&gt;[email&amp;#160;protected]&lt;/a&gt;&lt;script data-cfhash='f9e31' type=&quot;text/javascript&quot;&gt;\n/* &lt;![CDATA[ */!function(){try{var t=&quot;currentScript&quot;in document?document.currentScript:function(){for(var t=document.getElementsByTagName(&quot;script&quot;),e=t.length;e--;)if(t[e].getAttribute(&quot;data-cfhash&quot;))return t[e]}();if(t&amp;&amp;t.previousSibling){var e,r,n,i,c=t.previousSibling,a=c.getAttribute(&quot;data-cfemail&quot;);if(a){for(e=&quot;&quot;,r=parseInt(a.substr(0,2),16),n=2;a.length-n;n+=2)i=parseInt(a.substr(n,2),16)^r,e+=String.fromCharCode(i);e=document.createTextNode(e),c.parentNode.replaceChild(e,c)}t.parentNode.removeChild(t);}}catch(u){}}()/* ]]&gt; */&lt;/script&gt;\nFormat settings, CABAC           : Yes\nFormat settings, ReFrames        : 5 frames\nCodec ID                         : avc1\nCodec ID/Info                    : Advanced Video Coding\nDuration                         : 1h 56mn\nBit rate mode                    : Variable\nBit rate                         : 2 502 Kbps\nNominal bit rate                 : 2 570 Kbps\nMaximum bit rate                 : 25.5 Mbps\nWidth                            : 1 280 pixels\nHeight                           : 688 pixels\nDisplay aspect ratio             : 1.860\nFrame rate mode                  : Variable\nFrame rate                       : 23.976 fps\nMinimum frame rate               : 15.873 fps\nMaximum frame rate               : 24.390 fps\nResolution                       : 24 bits\nColorimetry                      : 4:2:0\nScan type                        : Progressive\nBits/(Pixel*Frame)               : 0.118\nStream size                      : 2.04 GiB (87%)\nWriting library                  : x264 core 112\n\nAudio\nID                               : 2\nFormat                           : AAC\nFormat/Info                      : Advanced Audio Codec\nFormat version                   : Version 4\nFormat profile                   : LC\nFormat settings, SBR             : No\nCodec ID                         : 40\nDuration                         : 1h 56mn\nBit rate mode                    : Variable\nBit rate                         : 384 Kbps\nMaximum bit rate                 : 594 Kbps\nChannel(s)                       : 6 channels\nChannel positions                : Front: L C R, Rear: L R, LFE\nSampling rate                    : 48.0 KHz\nResolution                       : 16 bits\nStream size                      : 321 MiB (13%)\nLanguage                         : English\n\n\nEnjoy...\n\nRequested by DreamExtractor.\n\nComing up soon:  The Manchurian Candidate, The Recruit, The Bourne Trilogy, Cliffhanger...","torrent":{"xt":"urn:btih:38f91339ea66c963fd4db5ae1f1686a14b2d0d72","amp;dn":"Before+the+Devil+Knows+Youre+Dead-720p+MP4+AAC+x264+BRRip+2006-C","amp;tr":["udp%3A%2F%2Ftracker.openbittorrent.com%3A80","udp%3A%2F%2Fopen.demonii.com%3A1337","udp%3A%2F%2Ftracker.coppersurfer.tk%3A6969","udp%3A%2F%2Fexodus.desync.com%3A6969"],"infoHash":"38f91339ea66c963fd4db5ae1f1686a14b2d0d72","infoHashBuffer":{"type":"Buffer","data":[56,249,19,57,234,102,201,99,253,77,181,174,31,22,134,161,75,45,13,114]},"announce":[],"urlList":[]}}